<?xml version="1.0" encoding="UTF-8" standalone="no"?>
<svg
   xmlns:dc="http://purl.org/dc/elements/1.1/"
   xmlns:cc="http://creativecommons.org/ns#"
   xmlns:rdf="http://www.w3.org/1999/02/22-rdf-syntax-ns#"
   xmlns:svg="http://www.w3.org/2000/svg"
   xmlns="http://www.w3.org/2000/svg"
   xmlns:xlink="http://www.w3.org/1999/xlink"
   xmlns:sodipodi="http://sodipodi.sourceforge.net/DTD/sodipodi-0.dtd"
   xmlns:inkscape="http://www.inkscape.org/namespaces/inkscape"
   data-v-1084b650=""
   viewBox="0 0 242.63245 68.083305"
   version="1.1"
   id="svg92"
   sodipodi:docname="logo_test.svg"
   inkscape:version="0.92.3 (2405546, 2018-03-11)"
   width="242.63245"
   height="68.083305">
  <metadata
     id="metadata98">
    <rdf:RDF>
      <cc:Work
         rdf:about="">
        <dc:format>image/svg+xml</dc:format>
        <dc:type
           rdf:resource="http://purl.org/dc/dcmitype/StillImage" />
        <dc:title></dc:title>
      </cc:Work>
    </rdf:RDF>
  </metadata>
  <defs
     id="defs96">
    <clipPath
       clipPathUnits="userSpaceOnUse"
       id="clipPath118">
      <rect
         id="rect120"
         width="247.17287"
         height="70.59774"
         x="29.079161"
         y="116.80128" />
    </clipPath>
    <clipPath
       clipPathUnits="userSpaceOnUse"
       id="clipPath3890">
      <rect
         id="rect3892"
         width="338.81723"
         height="329.67853"
         x="-15.764255"
         y="-13.457352" />
    </clipPath>
    <clipPath
       clipPathUnits="userSpaceOnUse"
       id="clipPath3900">
      <rect
         id="rect3902"
         width="244.2317"
         height="76.536598"
         x="29.700769"
         y="114.48442" />
    </clipPath>
    <linearGradient
       inkscape:collect="always"
       xlink:href="#3efdc507-f112-77d1-ac54-c07fbfc3d3f1"
       id="linearGradient3923"
       gradientTransform="scale(2.0525222,0.48720544)"
       x1="0.42386872"
       y1="6.4859705"
       x2="21.831676"
       y2="6.4859705"
       gradientUnits="userSpaceOnUse" />
    <linearGradient
       inkscape:collect="always"
       xlink:href="#3efdc507-f112-77d1-ac54-c07fbfc3d3f1"
       id="linearGradient3925"
       gradientTransform="scale(2.0525222,0.48720544)"
       x1="0.42386872"
       y1="6.4859705"
       x2="21.831676"
       y2="6.4859705"
       gradientUnits="userSpaceOnUse" />
    <clipPath
       clipPathUnits="userSpaceOnUse"
       id="clipPath4003">
      <rect
         style="fill:#800000;stroke-width:0.1923077"
         id="rect4005"
         width="46.001045"
         height="12.961135"
         x="0.21095924"
         y="2.0787551" />
    </clipPath>
    <clipPath
       clipPathUnits="userSpaceOnUse"
       id="clipPath4009">
      <rect
         style="fill:#800000;stroke-width:0.1923077"
         id="rect4011"
         width="46.660088"
         height="13.092943"
         x="-0.096593119"
         y="2.1666272" />
    </clipPath>
  </defs>
  <sodipodi:namedview
     pagecolor="#ffffff"
     bordercolor="#666666"
     borderopacity="1"
     objecttolerance="10"
     gridtolerance="10"
     guidetolerance="10"
     inkscape:pageopacity="0"
     inkscape:pageshadow="2"
     inkscape:window-width="1918"
     inkscape:window-height="2119"
     id="namedview94"
     showgrid="false"
     inkscape:zoom="4.376991"
     inkscape:cx="115.65586"
     inkscape:cy="33.286437"
     inkscape:window-x="1920"
     inkscape:window-y="39"
     inkscape:window-maximized="0"
     inkscape:current-layer="svg92" />
  <!---->
  <!---->
  <linearGradient
     data-v-1084b650=""
     gradientTransform="rotate(25)"
     id="3efdc507-f112-77d1-ac54-c07fbfc3d3f1"
     x1="0"
     y1="0"
     x2="1"
     y2="0">
    <stop
       data-v-1084b650=""
       offset="0%"
       style="stop-color: rgb(18, 38, 99); stop-opacity: 1;"
       id="stop84" />
    <stop
       data-v-1084b650=""
       offset="100%"
       style="stop-color: rgb(93, 215, 173); stop-opacity: 1;"
       id="stop86" />
  </linearGradient>
  <g
     style="fill:url(#linearGradient3925)"
     data-v-1084b650=""
     id="266020ce-90e0-cb23-4fcf-1bdb0bf34d34"
     transform="matrix(5.2,0,0,5.2,0.50228422,-11.266461)"
     clip-path="url(#clipPath4009)">
    <path
       style="fill:url(#linearGradient3923)"
       inkscape:connector-curvature="0"
       d="m 3.93,6.23 v 0 q 1.31,0 2,0.67 v 0 0 q 0.69,0.67 0.69,1.95 v 0 4.7 H 6.17 v -1.45 0 q -0.35,0.7 -1.04,1.1 v 0 0 q -0.69,0.39 -1.66,0.39 v 0 0 q -1.22,0 -1.91,-0.56 v 0 0 Q 0.87,12.47 0.87,11.55 v 0 0 q 0,-0.88 0.63,-1.44 v 0 0 Q 2.13,9.56 3.51,9.56 v 0 h 2.65 v -0.71 0 q 0,-1.08 -0.57,-1.64 v 0 0 Q 5.03,6.65 3.92,6.65 v 0 0 q -0.77,0 -1.44,0.27 v 0 0 Q 1.81,7.18 1.33,7.63 v 0 L 1.08,7.29 v 0 Q 1.61,6.79 2.36,6.51 v 0 0 Q 3.11,6.23 3.93,6.23 Z M 3.5,13.2 v 0 q 1.96,0 2.66,-1.75 v 0 -1.51 H 3.51 v 0 q -1.13,0 -1.66,0.43 v 0 0 q -0.52,0.42 -0.52,1.15 v 0 0 q 0,0.79 0.58,1.23 v 0 0 Q 2.49,13.2 3.5,13.2 Z m 9.58,-6.97 v 0 q 1.35,0 2.14,0.79 v 0 0 Q 16,7.81 16,9.28 v 0 4.27 h -0.46 v -4.24 0 q 0,-1.29 -0.65,-1.97 v 0 0 Q 14.24,6.66 13.03,6.66 v 0 0 q -1.35,0 -2.14,0.81 v 0 0 q -0.78,0.8 -0.78,2.16 v 0 3.92 H 9.65 V 6.29 h 0.44 v 1.77 0 q 0.35,-0.85 1.13,-1.34 v 0 0 Q 12,6.23 13.08,6.23 Z m 9.14,6.52 0.24,0.34 v 0 q -0.26,0.24 -0.65,0.37 v 0 0 Q 21.42,13.59 21,13.59 v 0 0 q -0.88,0 -1.36,-0.49 v 0 0 q -0.49,-0.5 -0.49,-1.37 v 0 -5.04 h -1.37 v -0.4 h 1.37 v -1.6 h 0.46 v 1.6 h 2.4 v 0.4 h -2.4 v 4.97 0 q 0,0.74 0.37,1.14 v 0 0 q 0.36,0.39 1.06,0.39 v 0 0 q 0.7,0 1.18,-0.44 z m 4.67,-6.52 v 0 q 1.31,0 2,0.67 v 0 0 q 0.69,0.67 0.69,1.95 v 0 4.7 h -0.45 v -1.45 0 q -0.35,0.7 -1.04,1.1 v 0 0 q -0.69,0.39 -1.66,0.39 v 0 0 q -1.22,0 -1.91,-0.56 v 0 0 q -0.69,-0.56 -0.69,-1.48 v 0 0 q 0,-0.88 0.63,-1.44 v 0 0 q 0.63,-0.55 2.01,-0.55 v 0 h 2.65 v -0.71 0 q 0,-1.08 -0.57,-1.64 v 0 0 Q 27.99,6.65 26.88,6.65 v 0 0 q -0.77,0 -1.44,0.27 v 0 0 q -0.67,0.26 -1.15,0.71 v 0 L 24.04,7.29 v 0 q 0.53,-0.5 1.28,-0.78 v 0 0 q 0.75,-0.28 1.57,-0.28 z m -0.43,6.97 v 0 q 1.96,0 2.66,-1.75 v 0 -1.51 h -2.65 v 0 q -1.13,0 -1.65,0.43 v 0 0 q -0.53,0.42 -0.53,1.15 v 0 0 q 0,0.79 0.58,1.23 v 0 0 q 0.58,0.45 1.59,0.45 z m 6.15,0.35 V 3.16 h 0.46 v 10.39 z m 3.57,0 V 3.16 h 0.46 v 10.39 z m 5.95,-7.32 v 0 q 1.3,0 1.99,0.67 v 0 0 q 0.69,0.67 0.69,1.95 v 0 4.7 h -0.44 v -1.45 0 q -0.35,0.7 -1.05,1.1 v 0 0 q -0.69,0.39 -1.66,0.39 v 0 0 q -1.21,0 -1.91,-0.56 v 0 0 q -0.69,-0.56 -0.69,-1.48 v 0 0 q 0,-0.88 0.63,-1.44 v 0 0 q 0.63,-0.55 2.02,-0.55 v 0 h 2.64 v -0.71 0 q 0,-1.08 -0.57,-1.64 v 0 0 Q 43.22,6.65 42.11,6.65 v 0 0 q -0.77,0 -1.44,0.27 v 0 0 Q 40,7.18 39.52,7.63 v 0 L 39.27,7.29 v 0 q 0.53,-0.5 1.28,-0.78 v 0 0 Q 41.3,6.23 42.13,6.23 Z m -0.44,6.97 v 0 q 1.96,0 2.66,-1.75 v 0 -1.51 h -2.64 v 0 q -1.14,0 -1.66,0.43 v 0 0 q -0.53,0.42 -0.53,1.15 v 0 0 q 0,0.79 0.58,1.23 v 0 0 q 0.58,0.45 1.59,0.45 z"
       id="path89" />
  </g>
  <!---->
</svg>
