<?xml version="1.0" encoding="UTF-8" standalone="no"?>
<svg
   xmlns:dc="http://purl.org/dc/elements/1.1/"
   xmlns:cc="http://creativecommons.org/ns#"
   xmlns:rdf="http://www.w3.org/1999/02/22-rdf-syntax-ns#"
   xmlns:svg="http://www.w3.org/2000/svg"
   xmlns="http://www.w3.org/2000/svg"
   xmlns:xlink="http://www.w3.org/1999/xlink"
   xmlns:sodipodi="http://sodipodi.sourceforge.net/DTD/sodipodi-0.dtd"
   xmlns:inkscape="http://www.inkscape.org/namespaces/inkscape"
   data-v-1084b650=""
   viewBox="0 0 240 60"
   version="1.1"
   id="svg380"
   sodipodi:docname="antalla_logo.svg"
   inkscape:version="0.92.3 (2405546, 2018-03-11)"
   width="232.62177"
   height="73.020554">
  <metadata
     id="metadata386">
    <rdf:RDF>
      <cc:Work
         rdf:about="">
        <dc:format>image/svg+xml</dc:format>
        <dc:type
           rdf:resource="http://purl.org/dc/dcmitype/StillImage" />
        <dc:title />
      </cc:Work>
    </rdf:RDF>
  </metadata>
  <defs
     id="defs384">
    <linearGradient
       inkscape:collect="always"
       xlink:href="#e3e56f10-a123-2f57-2e2e-c111bcd2a8ac"
       id="linearGradient97"
       gradientTransform="scale(0.76639005,1.3048186)"
       x1="34.047937"
       y1="5.8414092"
       x2="103.19549"
       y2="5.8414092"
       gradientUnits="userSpaceOnUse" />
    <linearGradient
       inkscape:collect="always"
       xlink:href="#e3e56f10-a123-2f57-2e2e-c111bcd2a8ac"
       id="linearGradient99"
       gradientTransform="scale(0.99352363,1.0065186)"
       x1="26.438224"
       y1="49.280759"
       x2="52.67917"
       y2="49.280759"
       gradientUnits="userSpaceOnUse" />
    <linearGradient
       inkscape:collect="always"
       xlink:href="#e3e56f10-a123-2f57-2e2e-c111bcd2a8ac"
       id="linearGradient101"
       x1="37.676999"
       y1="21.677001"
       x2="45.980999"
       y2="21.677001"
       gradientUnits="userSpaceOnUse" />
    <linearGradient
       inkscape:collect="always"
       xlink:href="#e3e56f10-a123-2f57-2e2e-c111bcd2a8ac"
       id="linearGradient103"
       x1="59.374001"
       y1="21.677001"
       x2="67.678001"
       y2="21.677001"
       gradientUnits="userSpaceOnUse" />
    <linearGradient
       inkscape:collect="always"
       xlink:href="#e3e56f10-a123-2f57-2e2e-c111bcd2a8ac"
       id="linearGradient105"
       gradientTransform="scale(2.1910319,0.45640595)"
       x1="9.5845248"
       y1="4.3820639"
       x2="38.519293"
       y2="4.3820639"
       gradientUnits="userSpaceOnUse" />
    <linearGradient
       inkscape:collect="always"
       xlink:href="#e3e56f10-a123-2f57-2e2e-c111bcd2a8ac"
       id="linearGradient107"
       gradientTransform="scale(0.81328936,1.2295747)"
       x1="25.821068"
       y1="1.6265787"
       x2="103.77241"
       y2="1.6265787"
       gradientUnits="userSpaceOnUse" />
    <linearGradient
       inkscape:collect="always"
       xlink:href="#e3e56f10-a123-2f57-2e2e-c111bcd2a8ac"
       id="linearGradient109"
       gradientTransform="scale(0.81328936,1.2295747)"
       x1="25.821068"
       y1="1.6265787"
       x2="103.77241"
       y2="1.6265787"
       gradientUnits="userSpaceOnUse" />
  </defs>
  <sodipodi:namedview
     pagecolor="#ffffff"
     bordercolor="#666666"
     borderopacity="1"
     objecttolerance="10"
     gridtolerance="10"
     guidetolerance="10"
     inkscape:pageopacity="0"
     inkscape:pageshadow="2"
     inkscape:window-width="3838"
     inkscape:window-height="2119"
     id="namedview382"
     showgrid="false"
     inkscape:zoom="8.9001173"
     inkscape:cx="106.29206"
     inkscape:cy="14.009099"
     inkscape:window-x="0"
     inkscape:window-y="39"
     inkscape:window-maximized="0"
     inkscape:current-layer="svg380" />
  <!---->
  <!---->
  <rect
     data-v-1084b650=""
     x="-38.954681"
     y="-117.83945"
     width="300"
     height="300"
     class="logo-background-square"
     id="rect357"
     style="fill:none" />
  <!---->
  <g
     data-v-1084b650=""
     id="451a8659-15eb-f755-4cc0-3639a51f9330"
     transform="matrix(4,0,0,4,53.381759,-1.339445)"
     style="fill:#164450;fill-opacity:1">
    <path
       d="m 3.93,6.23 v 0 q 1.31,0 2,0.67 v 0 0 q 0.69,0.67 0.69,1.95 v 0 4.7 H 6.17 v -1.45 0 q -0.35,0.7 -1.04,1.1 v 0 0 q -0.69,0.39 -1.66,0.39 v 0 0 q -1.22,0 -1.91,-0.56 v 0 0 Q 0.87,12.47 0.87,11.55 v 0 0 q 0,-0.88 0.63,-1.44 v 0 0 Q 2.13,9.56 3.51,9.56 v 0 h 2.65 v -0.71 0 q 0,-1.08 -0.57,-1.64 v 0 0 Q 5.03,6.65 3.92,6.65 v 0 0 q -0.77,0 -1.44,0.27 v 0 0 Q 1.81,7.18 1.33,7.63 v 0 L 1.08,7.29 v 0 Q 1.61,6.79 2.36,6.51 v 0 0 Q 3.11,6.23 3.93,6.23 Z M 3.5,13.2 v 0 q 1.96,0 2.66,-1.75 v 0 -1.51 H 3.51 v 0 q -1.13,0 -1.66,0.43 v 0 0 q -0.52,0.42 -0.52,1.15 v 0 0 q 0,0.79 0.58,1.23 v 0 0 Q 2.49,13.2 3.5,13.2 Z m 9.58,-6.97 v 0 q 1.35,0 2.14,0.79 v 0 0 Q 16,7.81 16,9.28 v 0 4.27 h -0.46 v -4.24 0 q 0,-1.29 -0.65,-1.97 v 0 0 Q 14.24,6.66 13.03,6.66 v 0 0 q -1.35,0 -2.14,0.81 v 0 0 q -0.78,0.8 -0.78,2.16 v 0 3.92 H 9.65 V 6.29 h 0.44 v 1.77 0 q 0.35,-0.85 1.13,-1.34 v 0 0 Q 12,6.23 13.08,6.23 Z m 9.14,6.52 0.24,0.34 v 0 q -0.26,0.24 -0.65,0.37 v 0 0 Q 21.42,13.59 21,13.59 v 0 0 q -0.88,0 -1.36,-0.49 v 0 0 q -0.49,-0.5 -0.49,-1.37 v 0 -5.04 h -1.37 v -0.4 h 1.37 v -1.6 h 0.46 v 1.6 h 2.4 v 0.4 h -2.4 v 4.97 0 q 0,0.74 0.37,1.14 v 0 0 q 0.36,0.39 1.06,0.39 v 0 0 q 0.7,0 1.18,-0.44 z m 4.67,-6.52 v 0 q 1.31,0 2,0.67 v 0 0 q 0.69,0.67 0.69,1.95 v 0 4.7 h -0.45 v -1.45 0 q -0.35,0.7 -1.04,1.1 v 0 0 q -0.69,0.39 -1.66,0.39 v 0 0 q -1.22,0 -1.91,-0.56 v 0 0 q -0.69,-0.56 -0.69,-1.48 v 0 0 q 0,-0.88 0.63,-1.44 v 0 0 q 0.63,-0.55 2.01,-0.55 v 0 h 2.65 v -0.71 0 q 0,-1.08 -0.57,-1.64 v 0 0 Q 27.99,6.65 26.88,6.65 v 0 0 q -0.77,0 -1.44,0.27 v 0 0 q -0.67,0.26 -1.15,0.71 v 0 L 24.04,7.29 v 0 q 0.53,-0.5 1.28,-0.78 v 0 0 q 0.75,-0.28 1.57,-0.28 z m -0.43,6.97 v 0 q 1.96,0 2.66,-1.75 v 0 -1.51 h -2.65 v 0 q -1.13,0 -1.65,0.43 v 0 0 q -0.53,0.42 -0.53,1.15 v 0 0 q 0,0.79 0.58,1.23 v 0 0 q 0.58,0.45 1.59,0.45 z m 6.15,0.35 V 3.16 h 0.46 v 10.39 z m 3.57,0 V 3.16 h 0.46 v 10.39 z m 5.95,-7.32 v 0 q 1.3,0 1.99,0.67 v 0 0 q 0.69,0.67 0.69,1.95 v 0 4.7 h -0.44 v -1.45 0 q -0.35,0.7 -1.05,1.1 v 0 0 q -0.69,0.39 -1.66,0.39 v 0 0 q -1.21,0 -1.91,-0.56 v 0 0 q -0.69,-0.56 -0.69,-1.48 v 0 0 q 0,-0.88 0.63,-1.44 v 0 0 q 0.63,-0.55 2.02,-0.55 v 0 h 2.64 v -0.71 0 q 0,-1.08 -0.57,-1.64 v 0 0 Q 43.22,6.65 42.11,6.65 v 0 0 q -0.77,0 -1.44,0.27 v 0 0 Q 40,7.18 39.52,7.63 v 0 L 39.27,7.29 v 0 q 0.53,-0.5 1.28,-0.78 v 0 0 Q 41.3,6.23 42.13,6.23 Z m -0.44,6.97 v 0 q 1.96,0 2.66,-1.75 v 0 -1.51 h -2.64 v 0 q -1.14,0 -1.66,0.43 v 0 0 q -0.53,0.42 -0.53,1.15 v 0 0 q 0,0.79 0.58,1.23 v 0 0 q 0.58,0.45 1.59,0.45 z"
       id="path359"
       style="fill:#164450;fill-opacity:1"
       inkscape:connector-curvature="0" />
  </g>
  <linearGradient
     data-v-1084b650=""
     gradientTransform="rotate(25)"
     id="e3e56f10-a123-2f57-2e2e-c111bcd2a8ac"
     x1="0"
     y1="0"
     x2="1"
     y2="0">
    <stop
       data-v-1084b650=""
       offset="0%"
       style="stop-color: rgb(1, 100, 139); stop-opacity: 1;"
       id="stop362" />
    <stop
       data-v-1084b650=""
       offset="100%"
       style="stop-color: rgb(91, 208, 164); stop-opacity: 1;"
       id="stop364" />
  </linearGradient>
  <g
     data-v-1084b650=""
     id="2339580b-fc11-aabe-a3a4-57085db0e099"
     transform="matrix(0.21763852,0,0,0.21763852,-4.5704093,-0.43527499)"
     style="fill:url(#linearGradient109);stroke:none">
    <svg
       viewBox="0 0 100 100"
       version="1.1"
       height="300"
       width="300"
       id="svg377"
       style="fill:url(#linearGradient107)">
      <path
         d="m 52.508,97.847 c 0,-4.802 -1.304,-9.296 -3.568,-13.16 a 55.207,55.207 0 0 1 -21.99,4.55 c -0.202,0 -0.402,-0.003 -0.603,-0.007 l -0.133,-0.002 c -0.041,-0.002 -0.08,-0.012 -0.12,-0.015 v 8.634 z M 71.362,15.171 A 25.983,25.983 0 0 0 53.018,7.622 c -0.114,0 -0.228,0.003 -0.341,0.005 -0.113,-10e-4 -0.227,-0.005 -0.342,-0.005 -7.133,0 -13.593,2.867 -18.301,7.509 v 0.075 c -0.026,0 -0.049,-0.003 -0.075,-0.003 -4.751,4.722 -7.694,11.262 -7.694,18.49 v 12.506 h 29.434 l 0.035,3.368 10e-4,0.108 0.003,0.27 c 0,16.25 -13.221,29.473 -29.474,29.473 v 6.408 c 0.228,0.004 0.454,0.008 0.683,0.008 28.796,0 52.141,-23.343 52.141,-52.14 h -0.002 c 0,-7.227 -2.94,-13.766 -7.69,-18.487 l -0.035,10e-4 V 15.171 Z M 31.659,25.83 c 0,-5.616 4.553,-10.169 10.169,-10.169 5.616,0 10.169,4.553 10.169,10.169 0,5.616 -4.553,10.169 -10.169,10.169 -5.616,0 -10.169,-4.553 -10.169,-10.169 z m 20.999,15.82 -4.669,-4.67 a 6.517,6.517 0 0 1 9.217,0 l 0.061,0.062 z M 73.696,25.83 c 0,5.616 -4.554,10.169 -10.17,10.169 -5.616,0 -10.169,-4.553 -10.169,-10.169 0,-5.616 4.553,-10.17 10.169,-10.17 5.616,0 10.17,4.553 10.17,10.17 z"
         id="path367"
         inkscape:connector-curvature="0"
         style="fill:url(#linearGradient97)" />
      <path
         d="m 26.267,76.014 c 14.399,0 26.071,-11.672 26.071,-26.07 0,-0.115 -0.004,-0.229 -0.005,-0.342 H 26.267 Z"
         id="path369"
         inkscape:connector-curvature="0"
         style="fill:url(#linearGradient99)" />
      <circle
         cx="41.828999"
         cy="25.829"
         r="4.152"
         id="circle371"
         style="fill:url(#linearGradient101)" />
      <circle
         cx="63.526001"
         cy="25.829"
         r="4.152"
         id="circle373"
         style="fill:url(#linearGradient103)" />
      <path
         d="m 33.96,15.203 c 0.025,0 0.049,0.003 0.075,0.003 V 2 H 21.002 L 21,2.171 c 0,5.773 3.757,10.662 8.957,12.375 a 13.02,13.02 0 0 0 4.003,0.657 z m 37.402,-0.032 v 0.035 l 0.035,-10e-4 a 13.07,13.07 0 0 0 4.011,-0.647 C 80.625,12.855 84.397,7.956 84.397,2.171 L 84.395,2 H 71.362 Z"
         id="path375"
         inkscape:connector-curvature="0"
         style="fill:url(#linearGradient105)" />
    </svg>
  </g>
</svg>
